<svg version="1.1" xmlns="http://www.w3.org/2000/svg" xmlns:xlink="http://www.w3.org/1999/xlink" width="512" height="512" viewBox="0,0,256,256"><g fill="#cdb89d" fill-rule="nonzero" stroke="none" stroke-width="1" stroke-linecap="butt" stroke-linejoin="miter" stroke-miterlimit="10" stroke-dasharray="" stroke-dashoffset="0" font-family="none" font-weight="none" font-size="none" text-anchor="none" style="mix-blend-mode: normal"><g transform="translate(0.00083,-0.09953) scale(10.66667,10.66667)"><path d="M6.079,22.5c0.00035,-0.39769 0.15862,-0.77897 0.44,-1.06l7.672,-7.672c0.46898,-0.46886 0.73247,-1.10484 0.73247,-1.768c0,-0.66316 -0.26348,-1.29914 -0.73247,-1.768l-7.662,-7.667c-0.56846,-0.58857 -0.56033,-1.52413 0.01827,-2.10273c0.5786,-0.5786 1.51416,-0.58673 2.10273,-0.01827l7.662,7.661c2.14513,2.14935 2.14513,5.62965 0,7.779l-7.672,7.672c-0.42836,0.42864 -1.07257,0.55743 -1.63281,0.32642c-0.56024,-0.23101 -0.92645,-0.77643 -0.92819,-1.38242z"></path></g></g></svg>