<svg version="1.1" xmlns="http://www.w3.org/2000/svg" xmlns:xlink="http://www.w3.org/1999/xlink" width="512" height="512" viewBox="0,0,256,256"><g fill="#cdb89d" fill-rule="nonzero" stroke="none" stroke-width="1" stroke-linecap="butt" stroke-linejoin="miter" stroke-miterlimit="10" stroke-dasharray="" stroke-dashoffset="0" font-family="none" font-weight="none" font-size="none" text-anchor="none" style="mix-blend-mode: normal"><g transform="scale(10.66667,10.66667)"><path d="M1,4.75h2.736c0.44123,1.62347 1.91514,2.75026 3.5975,2.75026c1.68236,0 3.15627,-1.12679 3.5975,-2.75026h12.069c0.55228,0 1,-0.44772 1,-1c0,-0.55228 -0.44772,-1 -1,-1h-12.069c-0.44123,-1.62347 -1.91514,-2.75026 -3.5975,-2.75026c-1.68236,0 -3.15627,1.12679 -3.5975,2.75026h-2.736c-0.55228,0 -1,0.44772 -1,1c0,0.55228 0.44772,1 1,1zM7.333,2c0.9665,0 1.75,0.7835 1.75,1.75c0,0.9665 -0.7835,1.75 -1.75,1.75c-0.9665,0 -1.75,-0.7835 -1.75,-1.75c0.0011,-0.96604 0.78396,-1.7489 1.75,-1.75z"></path><path d="M23,11h-2.736c-0.44051,-1.62388 -1.91443,-2.75123 -3.597,-2.75123c-1.68257,0 -3.15649,1.12735 -3.597,2.75123h-12.07c-0.55228,0 -1,0.44772 -1,1c0,0.55228 0.44772,1 1,1h12.07c0.44051,1.62388 1.91443,2.75123 3.597,2.75123c1.68257,0 3.15649,-1.12735 3.597,-2.75123h2.736c0.55228,0 1,-0.44772 1,-1c0,-0.55228 -0.44772,-1 -1,-1zM16.667,13.75c-0.9665,0 -1.75,-0.7835 -1.75,-1.75c0,-0.9665 0.7835,-1.75 1.75,-1.75c0.9665,0 1.75,0.7835 1.75,1.75c-0.0011,0.96604 -0.78396,1.7489 -1.75,1.75z"></path><path d="M23,19.25h-12.069c-0.44123,-1.62347 -1.91514,-2.75026 -3.5975,-2.75026c-1.68236,0 -3.15627,1.12679 -3.5975,2.75026h-2.736c-0.55228,0 -1,0.44772 -1,1c0,0.55228 0.44772,1 1,1h2.736c0.44123,1.62347 1.91514,2.75026 3.5975,2.75026c1.68236,0 3.15627,-1.12679 3.5975,-2.75026h12.069c0.55228,0 1,-0.44772 1,-1c0,-0.55228 -0.44772,-1 -1,-1zM7.333,22c-0.9665,0 -1.75,-0.7835 -1.75,-1.75c0,-0.9665 0.7835,-1.75 1.75,-1.75c0.9665,0 1.75,0.7835 1.75,1.75c-0.00165,0.96581 -0.78419,1.74835 -1.75,1.75z"></path></g></g></svg>