<svg version="1.1" xmlns="http://www.w3.org/2000/svg" xmlns:xlink="http://www.w3.org/1999/xlink" width="512" height="512" viewBox="0,0,256,256"><g fill="#cdb89d" fill-rule="nonzero" stroke="none" stroke-width="1" stroke-linecap="butt" stroke-linejoin="miter" stroke-miterlimit="10" stroke-dasharray="" stroke-dashoffset="0" font-family="none" font-weight="none" font-size="none" text-anchor="none" style="mix-blend-mode: normal"><g transform="translate(-0.88948,0.00137) scale(10.66667,10.66667)"><path d="M20.057,16.8l0.1,0.1c0.46142,0.46535 1.12901,0.66197 1.769,0.521c0.62954,-0.13214 1.14848,-0.57571 1.377,-1.177c0.55212,-1.4497 0.81605,-2.99321 0.777,-4.544c-0.23333,-6.31536 -5.2672,-11.39835 -11.58,-11.693c-3.253,-0.11311 -6.4124,1.10009 -8.75364,3.36138c-2.34124,2.26129 -3.66343,5.37665 -3.66336,8.63162c0.00771,6.62422 5.37578,11.99229 12,12c0.338,0 0.67,-0.022 1,-0.05c0.51924,-0.04377 0.91784,-0.47892 0.916,-1l-0.032,-3.588c-0.01656,-1.45029 0.84668,-2.76621 2.18358,-3.32863c1.3369,-0.56242 2.88124,-0.25934 3.90642,0.76663zM17.115,8.05c0.80066,-0.21245 1.62196,0.26433 1.83449,1.06497c0.21254,0.80063 -0.26416,1.62198 -1.06477,1.83461c-0.80061,0.21262 -1.62201,-0.26399 -1.83472,-1.06457c-0.10218,-0.38457 -0.04736,-0.79397 0.15237,-1.13812c0.19974,-0.34415 0.52803,-0.59483 0.91263,-0.69688zM7.885,16.95c-0.80066,0.21245 -1.62196,-0.26433 -1.83449,-1.06497c-0.21254,-0.80063 0.26416,-1.62198 1.06477,-1.83461c0.80061,-0.21262 1.62201,0.26399 1.83472,1.06457c0.10218,0.38457 0.04736,0.79397 -0.15237,1.13812c-0.19974,0.34415 -0.52803,0.59483 -0.91263,0.69688zM7.885,10.95c-0.80066,0.21245 -1.62196,-0.26433 -1.83449,-1.06497c-0.21254,-0.80063 0.26416,-1.62198 1.06477,-1.83461c0.80061,-0.21262 1.62201,0.26399 1.83472,1.06457c0.10218,0.38457 0.04736,0.79397 -0.15237,1.13812c-0.19974,0.34415 -0.52803,0.59483 -0.91263,0.69688zM12.885,7.95c-0.80066,0.21245 -1.62196,-0.26433 -1.83449,-1.06497c-0.21254,-0.80063 0.26416,-1.62198 1.06477,-1.83461c0.80061,-0.21262 1.62201,0.26399 1.83472,1.06457c0.10218,0.38457 0.04736,0.79397 -0.15237,1.13812c-0.19974,0.34415 -0.52803,0.59483 -0.91263,0.69688z"></path></g></g></svg>