<svg version="1.1" xmlns="http://www.w3.org/2000/svg" xmlns:xlink="http://www.w3.org/1999/xlink" width="512" height="512" viewBox="0,0,256,256"><g fill="#cdb89d" fill-rule="nonzero" stroke="none" stroke-width="1" stroke-linecap="butt" stroke-linejoin="miter" stroke-miterlimit="10" stroke-dasharray="" stroke-dashoffset="0" font-family="none" font-weight="none" font-size="none" text-anchor="none" style="mix-blend-mode: normal"><g transform="scale(0.5,0.5)"><g><path d="M480,224h-192v-192c0,-17.673 -14.327,-32 -32,-32c-17.673,0 -32,14.327 -32,32v192h-192c-17.673,0 -32,14.327 -32,32c0,17.673 14.327,32 32,32h192v192c0,17.673 14.327,32 32,32c17.673,0 32,-14.327 32,-32v-192h192c17.673,0 32,-14.327 32,-32c0,-17.673 -14.327,-32 -32,-32z"></path></g></g></g></svg>