<svg version="1.1" xmlns="http://www.w3.org/2000/svg" xmlns:xlink="http://www.w3.org/1999/xlink" width="512" height="512" viewBox="0,0,256,256"><g fill="#cdb89d" fill-rule="nonzero" stroke="none" stroke-width="1" stroke-linecap="butt" stroke-linejoin="miter" stroke-miterlimit="10" stroke-dasharray="" stroke-dashoffset="0" font-family="none" font-weight="none" font-size="none" text-anchor="none" style="mix-blend-mode: normal"><g transform="scale(0.5,0.5)"><g><path d="M448,85.333h-66.133c-10.207,-49.63 -53.865,-85.269 -104.534,-85.333h-42.667c-50.669,0.064 -94.327,35.703 -104.533,85.333h-66.133c-11.782,0 -21.333,9.551 -21.333,21.333c0,11.782 9.551,21.334 21.333,21.334h21.333v277.333c0.071,58.881 47.786,106.597 106.667,106.667h128c58.881,-0.07 106.596,-47.786 106.667,-106.667v-277.333h21.333c11.782,0 21.333,-9.551 21.333,-21.333c0,-11.782 -9.551,-21.334 -21.333,-21.334zM234.667,362.667c0,11.782 -9.551,21.333 -21.333,21.333c-11.783,0 -21.334,-9.551 -21.334,-21.333v-128c0,-11.782 9.551,-21.333 21.333,-21.333c11.782,0 21.333,9.551 21.333,21.333v128zM320,362.667c0,11.782 -9.551,21.333 -21.333,21.333c-11.782,0 -21.333,-9.551 -21.333,-21.333v-128c0,-11.782 9.551,-21.333 21.333,-21.333c11.782,0 21.333,9.551 21.333,21.333zM174.315,85.333c9.074,-25.551 33.238,-42.634 60.352,-42.667h42.667c27.114,0.033 51.278,17.116 60.352,42.667z"></path></g></g></g></svg>