<svg version="1.1" xmlns="http://www.w3.org/2000/svg" xmlns:xlink="http://www.w3.org/1999/xlink" width="512" height="512" viewBox="0,0,256,256"><g fill="#422f28" fill-rule="nonzero" stroke="none" stroke-width="1" stroke-linecap="butt" stroke-linejoin="miter" stroke-miterlimit="10" stroke-dasharray="" stroke-dashoffset="0" font-family="none" font-weight="none" font-size="none" text-anchor="none" style="mix-blend-mode: normal"><g transform="scale(0.49998,0.49998)"><g><path d="M301.258,256.01l201.387,-201.365c12.501,-12.501 12.501,-32.769 0,-45.269c-12.501,-12.501 -32.769,-12.501 -45.269,0v0l-201.366,201.386l-201.365,-201.386c-12.501,-12.501 -32.769,-12.501 -45.269,0c-12.5,12.501 -12.501,32.769 0,45.269l201.386,201.365l-201.386,201.366c-12.501,12.501 -12.501,32.769 0,45.269c12.501,12.5 32.769,12.501 45.269,0l201.365,-201.387l201.365,201.387c12.501,12.501 32.769,12.501 45.269,0c12.501,-12.501 12.501,-32.769 0,-45.269z"></path></g></g></g></svg>